<?xml version="1.0" encoding="utf-8"?>
<!-- Generator: Adobe Illustrator 24.1.1, SVG Export Plug-In . SVG Version: 6.00 Build 0)  -->
<svg version="1.1" id="Layer_1" xmlns="http://www.w3.org/2000/svg" xmlns:xlink="http://www.w3.org/1999/xlink" x="0px" y="0px"
	 viewBox="0 0 1200 200.2" style="enable-background:new 0 0 1200 200.2;" xml:space="preserve">
<style type="text/css">
	.st0{fill:#8F7A5A;}
	.st1{fill:none;}
</style>
<g>
	<path class="st0" d="M353.7,113.9c-39.1-17.1-77-8.8-114.7,5.2c-24.7,9.2-48.9,20.3-75.5,23.7c-20.1,2.6-38.7-0.5-54.9-13.8
		c-1.9-1.5-5.1-1.9-7.7-2c-3.6-0.1-7.2,0.9-10.8,0.8c-20.6-0.3-31.1-8.4-36.2-28.4C52,92.2,51.5,84.4,50,74.6
		C65.3,80.4,78.9,85,92.1,90.8c9.5,4.2,11.3,13.9,12,23c0.5,7.3,4.2,11,10.2,14.1c18.4,9.2,37.7,10.1,56.9,5
		c24-6.4,47.5-14.6,71.2-22.1c31.5-10,63.4-13,95.8-4.5c5.4,1.4,10.3,5.1,15.4,7.8L353.7,113.9z"/>
	<path class="st0" d="M619.1,138.4c11.3-2.7,17.5-10.4,23.9-18.4c12.4-15.6,9.4-33.9,0.8-47.9c-3.4-5.5-6.5-11.1-9.8-16.6
		c0.9-0.9,1.8-1.8,2.8-2.7c4.6,2.8,10.5,4.7,13.6,8.7c7.8,9.9,15.3,20.2,21.2,31.4c6.5,12.4,1.8,24.9-3.8,36.5
		c-1.2,2.4-4.7,3.9-7.4,5.2C650.3,138.9,628.3,141,619.1,138.4z"/>
	<path class="st0" d="M1094.8,125.3c1.2-6.1,2.5-11.3,3.2-16.6c1.4-10.6,7.4-17.5,17.2-21c11.1-4,22.4-7.6,34.9-11.8
		c-1.4,16.8-1.6,33.7-15.5,44.8C1122.9,129.9,1108.6,129.1,1094.8,125.3z"/>
	<path class="st0" d="M540.1,49.4c1-10.2,1.7-19.3,2.9-28.4c0.2-1.2,2.4-2.8,3.8-3c18.5-3.2,37.1-6.7,55.7-8.9
		c4.5-0.5,9.8,3.3,14.2,6c1.6,1,2.7,4.9,2,6.7c-0.6,1.6-3.9,2.6-6.2,3.1c-14.3,3.4-28.8,5.9-42.9,10c-6.7,2-12.5,7.1-18.9,10.4
		C547.5,47.1,543.7,48,540.1,49.4z"/>
	<path class="st0" d="M566.2,73.8c-2.8,18.3-3.9,37.3,16.7,45.2c22.7,8.6,35.5,5.2,56-20.8c3.8,11.2-4.9,28-20.2,37
		c-14.6,8.6-30.1,9.9-44.3-5C555.6,110.6,552.7,94.8,566.2,73.8z"/>
	<path class="st0" d="M563.5,134.3c-10.5,2.4-22.6-2.9-27.8-12.7c-5.2-9.9-9.9-20-14.7-30.1c-0.5-1.1-1-2.6-0.6-3.6
		c3.1-8.2,6.1-16.5,9.9-24.4c3.2-6.6,9-10.5,17.7-11.5c-2.2,5.3-4.2,9.9-6,14.6c-5.1,13.9-3.5,19.3,7.6,29.2
		c1.3,1.2,2.6,3.5,2.4,5.1c-1.4,11.6,1.1,21.6,10.5,29.3c0.6,0.5,0.9,1.3,1.1,2C563.7,132.6,563.6,133.1,563.5,134.3z"/>
	<path class="st0" d="M471.6,117.3c0.6-0.3,2.2-1.2,3.9-2c0.2-0.8,0.3-1.6,0.5-2.4c-7.2-2.3-14.4-4.7-20.5-6.7
		c16.4-7.3,31.5,4.9,48.9,7.4c1.9-17.4-4.8-29-17.8-33.5c-3.6-8.6-6.1-14.5-8.6-20.4c0.4-0.2,0.8-0.4,1.2-0.6
		c1.4,1.7,3.1,3.3,4.2,5.3c6.2,10.3,12.8,19.9,25.1,24.1c2.9,1,5.6,5,6.7,8.1c3,8.8,1.6,18.6,6.8,27c0.8,1.4-1.4,6.7-2.8,7
		c-3.8,0.7-9,1-11.6-1.1c-4.2-3.3-7.8-2.9-12.5-2.7c-4.1,0.2-8.5-2-12.6-3.7C478.7,121.4,475.1,119.1,471.6,117.3z"/>
	<path class="st0" d="M698.8,122.4c15.7-1.3,29.6-13.3,46.3-7.8c-17,5.6-18.4,6.6-15.3,11c-2.7,1.7-6,2.9-8.1,5.2
		c-4.6,5.2-9.9,5.6-16.2,4.5c-2.5-0.4-5.7,0.6-8,1.9c-4.7,2.7-9.8,5.5-14.2,1.3c-4.8-4.6-2.1-9.8,1.4-14.6c1.3-1.7,2.1-4.6,1.7-6.6
		c-1.5-8.1,0.9-16.3,7.4-18.9c14.9-6,21.6-19.1,31.4-30.1c-1.3,3-3.2,5.8-3.6,8.9c-0.5,3.3-8.2,5-2.1,9.5c-1.2,0.9-2.3,2.1-3.6,2.8
		C701.6,97.2,697,105.7,698.8,122.4z"/>
	<path class="st0" d="M592.9,38.6c18-12.7,42.9-13.4,57.8-3.3c5.6,3.8,11.3,7.3,16.6,11.5c1.7,1.4,3.1,4.3,3.2,6.6
		c0.2,6.5-0.5,13-2.2,20.4C652.8,42.3,622.7,42.5,592.9,38.6z"/>
	<path class="st0" d="M660.1,148.7c1.4-2.1,3.6-4.5,5.9-5.2c9.6-2.7,20.1,3.9,23.4,15.4c1.9,6.8,1.8,14.1,2.7,21.8
		c-12.9,0.6-24.2,0.7-34.6-6.2c-5.9-4-6.2-9.4-4.1-15C654.1,157.8,659.7,149.2,660.1,148.7z"/>
	<path class="st0" d="M125,83.1c4.4,3.3,8.1,6.5,12.1,9.2c17.3,11.3,20.3,21.9,11.2,40.8C125.5,131.1,113,110.7,125,83.1z"/>
	<path class="st0" d="M541.8,146.5c0.9,0.4,1.8,1,2.6,1.6c4.9,3.8,3,2,8.6,9.4c5.7,7.6,3.6,18.9-4.4,22.2c-5.5,2.3-12,2.2-18.1,2.8
		c-3.5,0.4-7.1,0.1-12.8,0.1c1.2-10.1,1-19.6,3.7-28.1C524,145.4,532.9,142.6,541.8,146.5z"/>
	<path class="st0" d="M1053.1,133.2c-15.3-27.1,6.2-36.9,22.5-48.8C1086.8,108.1,1077.4,129.1,1053.1,133.2z"/>
	<path class="st0" d="M353.5,114.1c5,2.7,8.9,1,13.5-2.2c11.2-7.8,24.5-9.8,37.7-10.4c9.8-0.5,19.7,0.2,29.4,1.3
		c3.7,0.4,7.1,3.7,10.1,7c-27.4-0.2-54.8-5-79.1,11.7c1.5,4.9,3.3,9.2,4,13.7c1,6.5-3,11.3-8.6,11.5c-6.5,0.2-11-4-10.3-10.8
		c0.4-4,1.6-8.3,3.9-11.5c2.9-4.1,2.9-7.1-0.4-10.5C353.7,113.9,353.5,114.1,353.5,114.1z M363.8,124.9c-0.9-0.2-1.7-0.3-2.6-0.5
		c-2.5,3.7-5.5,7.1-7.2,11.1c-2.1,4.9,1.2,8.5,5.7,8.5c2.3,0,6.4-3.7,6.6-6.1C366.7,133.6,364.8,129.2,363.8,124.9z"/>
	<path class="st0" d="M116.2,139.1c-2.3,23.6-19.6,26.6-37.2,29.9c-1.4-9-3-18.2,5.7-25.2C94.5,136,105.4,135.8,116.2,139.1z"/>
	<path class="st0" d="M197.7,99.3c-2.3,23.6-19.6,26.6-37.2,29.9c-1.4-9-3-18.2,5.7-25.2C176,96.2,186.8,96.1,197.7,99.3z"/>
	<path class="st0" d="M132.3,146.7c14.3,18.9,3.6,32.9-7.2,47.2c-7.1-5.7-14.5-11.4-12.8-22.4C114.2,159.1,122.1,151.7,132.3,146.7z
		"/>
	<path class="st0" d="M715.6,32.2c-3.1,2.7-4.2,4.9-5.7,12.7c-1.4,10.1-0.6,23.4-8.4,31c-1.7,1.7-3.3,3.6-5.2,5.1
		c-3.4,2.6-7.3,4.5-11,6.7c-1.6-4-4.1-7.9-4.6-12.1c-0.5-4.4,0.5-9.1,1.6-13.5c0.8-3.1,2.5-6,4.2-8.8c2.7-4.5,4.1-6.4,7.1-10.9
		C699.5,37.9,702.4,33.2,715.6,32.2z"/>
	<path class="st0" d="M1121.8,168.4c-18-2.8-34.5-6.7-36.8-29c10-3.3,20.1-2.9,29.5,3.3C1124.2,149.2,1122.6,159,1121.8,168.4z"/>
	<path class="st0" d="M1072.7,185.5c-10.1-11.6-18.5-23.2-7.9-38.8c8.2,3.3,14.5,9.1,17.2,18.3
		C1084.8,174.5,1078.4,180,1072.7,185.5z"/>
	<path class="st0" d="M1038.9,130.2c3.8-14.9,6.2-29-10.4-38.2c-5.9,6.7-8.9,14.6-7.2,24.1C1023.1,125.8,1031.3,127.8,1038.9,130.2z
		"/>
	<path class="st0" d="M628.7,60.5c-9.8,1.6-19.9,2.1-29.3,5.1c-9.5,3-18.2,8.4-27.1,12.7c-2.3-10,0.8-17.8,10.2-21.5
		c8.1-3.3,16.6-6.1,25.2-7.6C617.2,47.5,624.8,52.5,628.7,60.5z"/>
	<path class="st0" d="M512,137.5c3.1,2.2,4.4,3,5.2,4.8c0.8,1.8,0.8,3.8,0.1,5.6c-2.5,6.8-5.9,12.2-12.8,13
		c-6.5,0.8-13.3-1-19.8-1.6c-2.2-7.8,1-17.8,7.1-22.3C498.4,132.3,504.9,132.6,512,137.5z"/>
	<path class="st0" d="M550.7,87c-6.1-9.8-4.3-20.5,4.3-31c11.9-14.3,26.2-18.4,44.5-11.1C571.8,47.5,560.4,66.2,550.7,87z"/>
	<path class="st0" d="M499.6,108.1c-9.2-2.5-19.4-3.4-27-8.2c-4.1-2.6-3.9-12.2-5.4-18.6c-0.1-0.3,2-1.4,3.1-1.5
		C485.9,77.8,500.5,91.8,499.6,108.1z"/>
	<path class="st0" d="M702.8,117.3c3.2-18.7,9.8-25.4,26.6-28.2c5.9-1,8.4,0.8,7.1,7c-1.6,7.5-2.9,14.2-13.1,14.9
		C716.6,111.6,710,115,702.8,117.3z"/>
	<path class="st0" d="M617,146.3c-11.6,18.2-34,15.3-44.6-4C586.6,143.6,601.5,144.9,617,146.3z"/>
	<path class="st0" d="M634.3,93.5c-8.9-14.9-24-21.6-40.4-18.2c3.5-4,12.4-6.9,22.1-6.9c3.9,0,7.8,0.4,11.6,0.8
		c5,0.6,10.2,1.2,11.4,7.4C640.3,82.9,639.9,88.9,634.3,93.5z"/>
	<path class="st0" d="M610.7,81.9c16.4,2.1,20.3,9.4,11.7,21.7c-3.1,4.4-7.9,7.9-12.5,11c-1.7,1.2-5,0.1-8.4-0.9
		C617.1,106.5,620.4,96.1,610.7,81.9z"/>
	<path class="st0" d="M575.8,86.3c3.4,13,10.8,19.7,22,23.5c-8.7,4.2-15.5,3.2-20.7-2.7C572.2,101.6,570.6,95.6,575.8,86.3z"/>
	<g>
		<path class="st1" d="M829.5,115.7l1.9-1C831.4,114.7,829.5,115.7,829.5,115.7z"/>
		<path class="st1" d="M836.8,139.5c1.2,1.7,7.4,2.4,8.6,1.1c5.1-5.6,0.3-10.2-3.3-15.5C837.8,129.8,832.7,133.6,836.8,139.5z"/>
		<path class="st0" d="M1019.6,133c-20.8-5.5-41.3-12.2-61.9-18.2c-24.7-7.2-49.6-13.3-75.7-11.9c-13.7,0.7-27.1,3.2-38,11.9
			c-5.1,4-8.5,3.7-12.6-0.1l-1.9,1c1.6,2.3,5.1,3.4,5.6,4c-1.3,6.8-3.3,12.2-3.1,17.6c0.3,6,5.3,9,11.1,8.3
			c6.4-0.8,7.4-6.1,6.3-11.2c-0.8-3.9-3-7.5-4.9-12.3c5.4-2.7,10.7-5.9,16.3-8.3c16.4-6.7,33.8-7,50.6-3.4
			c26.9,5.7,53.4,12.9,80,19.8c22.1,5.7,44.1,11.8,67.4,10.4c13.2-0.8,25-5.3,32.1-13.5C1067.1,141.7,1043.3,139.3,1019.6,133z
			 M845.4,140.6c-1.2,1.3-7.5,0.6-8.6-1.1c-4.1-5.9,1-9.7,5.3-14.5C845.7,130.3,850.5,134.9,845.4,140.6z"/>
		<path class="st0" d="M767.8,111.1c0.8,0.2,1.6,0.5,2.3,0.5c19.7-1.6,39.4-3.3,58.5,3.8c0.5,0.2,0.3,0.1,0.9,0.4c0,0,1.9-1,1.9-1
			C806,106.5,774.7,104.7,767.8,111.1z"/>
	</g>
	<path class="st0" d="M582,87.6c1-2.1,1.4-5.2,3.1-6.4c6.1-4.4,16.3-3.4,22,1.5C599.6,84.2,591.9,85.7,582,87.6z"/>
	<path class="st0" d="M585.9,94.9c7.8,5.4,15.3,6.6,23.3,2.2c-2.2,6.1-6.6,7.9-12,7.5C591.7,104.3,587.6,102,585.9,94.9z"/>
</g>
</svg>
