<?xml version="1.0" encoding="utf-8"?>
<!-- Generator: Adobe Illustrator 24.1.1, SVG Export Plug-In . SVG Version: 6.00 Build 0)  -->
<svg version="1.1" id="Capa_1" xmlns="http://www.w3.org/2000/svg" xmlns:xlink="http://www.w3.org/1999/xlink" x="0px" y="0px"
	 viewBox="0 0 720 134" style="enable-background:new 0 0 720 134;" xml:space="preserve">
<style type="text/css">
	.st0{fill:#8F7A5A;}
</style>
<path class="st0" d="M476.5,9.2c3.5,1.6,7,3.2,10.5,4.8c-34.8,8-66.4,23.2-97.4,40.5C414.3,31.5,442.6,15.3,476.5,9.2z"/>
<path class="st0" d="M287.8,35.7c1.6-1.4,3.3-2.9,4.9-4.3c12.5,5.1,23.2,12.4,29.9,26.1C311,50.1,299.4,42.9,287.8,35.7z"/>
<path class="st0" d="M292.7,31.3C243.9,4.2,193.4-8.5,141.5,20.7C100.2,43.9,101,45,53.2,43.6c-13.1-0.4-26.2,0.3-39.2,1.2
	c-4.3,0.3-10.6-0.5-10.9,7.9c21.9,0,43.6-0.9,65.3,0.2c32.8,1.7,33.3,2.9,36.9,34.8c1.8,16,7.4,29.9,24.5,35.2
	c8.7,2.7,16.2,0.2,20-8.5c7.2-16.6-0.8-29.6-11.6-41.2c-18.8-20.1-18.5-25.4,4.3-41.5c9.6-6.8,20.3-11.2,31.7-14.2
	c40.6-10.7,77.5,1.4,113.7,18.1C292.9,38.1,293.2,35.2,292.7,31.3z M143.5,100.3c-0.1,6.7-2,15.5-9.6,13.9
	c-16.8-3.5-15.6-20-19.5-31.6c0.9-5.4-1.8-11.8,5.6-13C127.7,68.4,143.6,89.1,143.5,100.3z"/>
<path class="st0" d="M616.5,49.9c-7,1.7-13.1,4.7-19.1-3.6C566.6,3.9,523.7-0.8,476.5,9.2c0.2,8.9,5.9,5.5,10.5,4.8
	c9.5-0.1,18.9-0.8,28.4-0.1c25.3,1.8,48.4,9.2,66.8,28c9.3,9.5,11.9,17.2-1.4,25.9C570.8,74.3,564,84,561.4,96
	c-2.4,10.7-1.9,21.1,9.4,26.2c10.8,4.9,19.8-0.1,26.8-8.7c8.3-10.2,11.7-22.4,9.8-34.8c-2.5-16.7,5.7-21.7,19.9-23.9
	c20.3-3.2,40.6-2.7,61-2.5c7.2,0.1,14.8,2.7,27.7-3.4C678.7,40.2,647.6,42.6,616.5,49.9z M595.3,95.1c-2.8,8.1-5.1,16.9-15.1,19.3
	c-3.9,0.9-6.9-1.2-8.7-4.7c-5-9.7-1.3-18.3,4.2-26.2c4.5-6.4,9.3-14.2,18.1-13.5c7,0.6,3.2,8.1,4.7,11.9
	C597.3,86.8,596.7,91.1,595.3,95.1z"/>
<path class="st0" d="M383,37c-1.3-16.4-11.6-24-27.1-24.7c-16.8,1.4-26.4,10.1-26.2,26.4c0.2,16.3,10.5,25.2,26.2,26.5
	C370,66.3,384.1,51.5,383,37z M354.6,56.4c-10.8-0.5-17.4-7.5-17-18.3c0.5-12,8.9-17,19.8-18.2c10.9,1.9,17.9,8,17.3,18.8
	C374.1,50.2,366.2,56.9,354.6,56.4z"/>
</svg>
