<?xml version="1.0" encoding="utf-8"?>
<!-- Generator: Adobe Illustrator 24.1.1, SVG Export Plug-In . SVG Version: 6.00 Build 0)  -->
<svg version="1.1" id="Capa_1" xmlns="http://www.w3.org/2000/svg" xmlns:xlink="http://www.w3.org/1999/xlink" x="0px" y="0px"
	 viewBox="0 0 720 84" style="enable-background:new 0 0 720 84;" xml:space="preserve">
<style type="text/css">
	.st0{fill:#8F7A5A;}
</style>
<path class="st0" d="M667.8,77.8c-32,1.3-59.5-10.1-82.9-31.7c-3.8-1.8-6.9,4.3-10.8,1c-12.4-25-26.8-33.7-54.2-30
	c-16.7,2.3-32.9,7.4-49.4,11.3c-7.4,0.5-6.4-3.5-4.3-8.1c19.7-10,41-12.6,62.6-13.4c13.8-0.5,25.8,4.3,36.7,13.3
	c17.7,14.5,37.6,25.8,58,36c17.5,8.7,36,12,55.4,6.6c11.6-3.2,21.3-8.9,24.6-21.3c3.3-12.4-3.4-20.5-14.4-26.8
	c18.1-0.1,28.2,13.9,23.7,31.2C708.3,63.6,690.5,76.9,667.8,77.8"/>
<path class="st0" d="M155.2,76.6c-16.3-1.1-18-15.2-20-29.7c-15.2,9.9-29.7,19.7-46.3,25.3c-19.8,6.7-39.7,9.4-59.5,1.1
	C8.3,64.4,0.8,48.4,7.2,27.9c4-0.8,6,0.4,4.7,4.8C16.8,56.8,34.7,68.1,63.2,65c22.2-2.4,40.8-13.2,58.9-25.2
	c3.7-2.4,7.5-4.8,11.4-6.9c4.3-2.3,8.8-7.6,13.6-4.1c6,4.3-0.5,9-1.8,13.3C143,50.5,141.3,59,149,65c7,5.4,12.8,1.3,18.3-7.5
	C169.8,70.7,163.5,77.1,155.2,76.6"/>
<path class="st0" d="M412.6,50.4c-33.5,15.8-67.2,16.3-101.8,3.1c-36.8-14-73.1-29.9-112.1-37.1c-2.4-2.2-9-1.1-7.3-5.9
	c2.2-6.2,8.1-2.7,12.6-2c20.7,0,39.4,8.2,58.4,15.1c19,6.9,38.1,13.4,57,20.6c28.8,10.9,57.2,5.7,85.7-0.8
	C409.3,43.9,414.1,43.8,412.6,50.4z"/>
<path class="st0" d="M412.6,50.4c-2.5-2.3-5-4.7-7.5-7c19.7-9.5,39.9-17.7,61.1-23c1.4,2.7,2.8,5.4,4.3,8.1
	C451.2,35.7,431.9,43,412.6,50.4z"/>
<path class="st0" d="M564.4,77c-9,1.2-13.7-4.8-17.6-14.7c17.7,8.2,27.9,4.7,27.2-15.3c3.4-2.9,6.6-6.9,10.8-1
	c-5.7,4-2.1,10.7-4.7,15.7C576.6,68.8,572.8,75.9,564.4,77"/>
<path class="st0" d="M204,8.5c-3.3,1.6-11,0.2-5.3,7.9c-14.8-1.1-107.2,60.8-61.8,16.4C154.7,15.7,185.6,4.1,204,8.5z"/>
<path class="st0" d="M11.9,32.7c-1.6-1.6-3.1-3.2-4.7-4.8c6.4-19.9,21.2-21,38.7-16.7C29.1,10.1,19,19.2,11.9,32.7z"/>
</svg>
